<svg id="aad896aa-35ef-488d-883d-aa0344565d97" data-name="Layer 1" xmlns="http://www.w3.org/2000/svg" viewBox="0 0 620.5 670.7"><defs><style>.a80315e4-7a15-4f1d-ab7b-4f9d521b4b8c{fill:#f5a800;}.e6bdf002-7971-4cad-a98e-706db0bd3c11{fill:#fff;}</style></defs><title>logo</title><path class="a80315e4-7a15-4f1d-ab7b-4f9d521b4b8c" d="M484.2,699.8l-4.8,5.7-1.5-1.3,5-5.5-2.2-2.1,1.1-1.1c1.9,1.8,3.6,3.2,5.6,4.8l-.9,1.2-2.3-1.7m-9.6-14.1-7.8,4.5a15.1,15.1,0,0,0,1,1.7l7.7-4.5c-.3-.7-.6-1.1-.9-1.7m5,7.2-4.2,3.6,2.1-6.2c-.4-.5-.5-.9-.9-1.4L469,694l1.1,1.5,4.6-3.1-2.2,6.3a16.6,16.6,0,0,0,1.3,1.4l7-6a6.8,6.8,0,0,1-1.2-1.2M489.8,704a33.9,33.9,0,0,0,3.8,2l.8-1.3c-1.9-1-3.6-2.1-5.2-3.1l-5.1,7.5,5.7,3.5.8-1.4-4.1-2.4,1.4-1.9,2.7,1.6.8-1.3-2.7-1.6Zm25.3-27.9a12.9,12.9,0,1,1,0-25.7,12.9,12.9,0,0,1,0,25.7m.1-4.3a8.6,8.6,0,0,0,8.6-8.5,8.4,8.4,0,0,0-6.5-8.2c0-.4-.1-2.2-.1-2.2h-4.3s-.1,1.9-.2,2.3a8.5,8.5,0,0,0,2.5,16.6m-18.8-57.1v-.4a4.2,4.2,0,0,1,4-4.4,4.4,4.4,0,0,1,4.9,4v.4a4.5,4.5,0,0,1-8.9.4m1.6-.2a3,3,0,0,0,3.1,2.7,2.9,2.9,0,0,0,2.6-2.9c.1-.1,0-.2,0-.3a2.8,2.8,0,0,0-3.1-2.6,2.9,2.9,0,0,0-2.6,2.9Zm18.7,2.3h-1.8l2.2-4.7,2-4.2,2.1.2,1,4,1.5,5.4-1.9-.3-.5-1.6a24.5,24.5,0,0,0-3.8-.4Zm1.5-3.1,2.8.3-.5-1.9-.6-1.9-.9,1.9Zm-8.9-4,.8,7.4,1.9-.2-.8-7.3,2.9-.2v-1.7c-3.2.2-4.6.4-7.8.8l.2,1.6Zm.3,99.6-.7,5.4-2.6-6-1.7-.4-2,8.9,1.9.4,1.1-5.5,2.7,6.1a12,12,0,0,0,2,.3l1-9.2h-1.7m52.1-19.1-6.6-3.6-.8,1.5,7.9,4.4,3-5.5-1.3-.7Zm-9.9,1.3,8.9,3a5.6,5.6,0,0,0-.5.8l-.5.6-1.6-.5-2.4,3,.9,1.4-1.3,1.4-3.5-5.9-1.3-2.2Zm1,2.1,1,1.7,1,1.7,1.3-1.7.4-.5Zm-9.5,12a4.3,4.3,0,0,1,.6,2.2,6.3,6.3,0,0,1-.3,1.9,6.1,6.1,0,0,1-1.9,2,4.5,4.5,0,0,1-6.2-1.6.5.5,0,0,0-.2-.4,12.9,12.9,0,0,1-.4-1.9,4.7,4.7,0,0,1,2.3-3.9,4.5,4.5,0,0,1,6.1,1.7m-1,2.2a2.8,2.8,0,0,0-.4-1.5,2.8,2.8,0,0,0-3.9-1,2.9,2.9,0,0,0-1.4,2.5,2.8,2.8,0,0,0,.4,1.5l.3.4a2.9,2.9,0,0,0,3.6.6l.8-.6a3.1,3.1,0,0,0,.6-1.9m4.4-10.7,3.7,4-6.3-1.8-1.3.9,5.4,7.3,1.4-1.1-3.3-4.4,6.4,1.9a9.2,9.2,0,0,0,1.4-1.4l-6.3-6.7-1.1,1.3m40.1-33.8a16.9,16.9,0,0,1-.1,2.3v.2h-.2a24.7,24.7,0,0,1-11,3c-.1.5-.5,4-.6,4.5a22.9,22.9,0,0,1,9.8,5.7h.1v.2a16.7,16.7,0,0,1-1.3,4.5v.2h-.2a22.7,22.7,0,0,1-11.3.1c-.2.4-1.6,3.7-1.7,4.2a24.1,24.1,0,0,1,7.9,8v.4a16.3,16.3,0,0,1-2.4,4v.2h-.3a23.4,23.4,0,0,1-10.9-2.9l-2.9,3.8a21.6,21.6,0,0,1,5.6,9.8v.2h-.1a26.5,26.5,0,0,1-3.3,3.4h-.4a23.2,23.2,0,0,1-9.8-5.6l-3.6,2.8a23.2,23.2,0,0,1,2.9,10.6v.5l-.2.2a20.6,20.6,0,0,1-4.1,2.3h-.3a24.5,24.5,0,0,1-8-8l-4.4,1.9a22.4,22.4,0,0,1,.8,5.7,20.5,20.5,0,0,1-.8,5.6v.2h-.2a21.2,21.2,0,0,1-4.5,1.2h-.3a22.9,22.9,0,0,1-5.7-9.8l-4.6.6a21.9,21.9,0,0,1-2.9,10.9v.2h-.3a17.7,17.7,0,0,1-4.6,0h-.1v-.2a23,23,0,0,1-3-10.9l-4.8-.6a23.5,23.5,0,0,1-5.7,9.8h-.3a21.3,21.3,0,0,1-4.5-1.3h-.2a21.2,21.2,0,0,1-.8-5.7,22.3,22.3,0,0,1,.8-5.6l-4.3-1.7a22.7,22.7,0,0,1-8,8h-.3a20.6,20.6,0,0,1-4.1-2.3v-.5a22.7,22.7,0,0,1,2.9-10.8l-3.9-2.9a22.6,22.6,0,0,1-9.8,5.6h-.3a20.6,20.6,0,0,1-3.3-3.3v-.2h0a23.9,23.9,0,0,1,5.7-9.8c-.3-.4-2.6-3.4-3-3.8a21.7,21.7,0,0,1-10.9,2.9h-.1l-.2-.2a19.8,19.8,0,0,1-2.3-4v-.4a23.3,23.3,0,0,1,8-7.9c-.2-.5-1.6-3.9-1.9-4.4a21.7,21.7,0,0,1-11.3,0h-.1V684a20.3,20.3,0,0,1-1.2-4.4v-.3h.2a22.5,22.5,0,0,1,9.7-5.7c0-.5-.6-4.3-.6-4.9a21.5,21.5,0,0,1-11-2.9h-.1v-.2a15.5,15.5,0,0,1-.1-2.3,16.9,16.9,0,0,1,.1-2.3v-.2h.1a22.5,22.5,0,0,1,11-2.9c.1-.6.5-4.2.6-4.7a22.9,22.9,0,0,1-9.8-5.7h-.1v-.2a16.7,16.7,0,0,1,1.3-4.5v-.2h.2a22.7,22.7,0,0,1,11.3-.1l1.8-4.3a21.9,21.9,0,0,1-8-8v-.2h.1a17.4,17.4,0,0,1,2.3-4v-.2h.2a22.8,22.8,0,0,1,10.9,2.9l3-3.9a21.6,21.6,0,0,1-5.6-9.8v-.2h.1a25.7,25.7,0,0,1,3.3-3.3h.4a21.9,21.9,0,0,1,9.7,5.7l3.6-2.8a22,22,0,0,1-2.9-10.6v-.7a20.6,20.6,0,0,1,4.1-2.3h.3a23.5,23.5,0,0,1,8,8l4.5-1.9a27.8,27.8,0,0,1-.7-5.7,19.9,19.9,0,0,1,.8-5.6v-.2h.2a20.3,20.3,0,0,1,4.4-1.2h.4a22.9,22.9,0,0,1,5.7,9.8l4.8-.6a22.2,22.2,0,0,1,3-10.9h.2a18.5,18.5,0,0,1,4.7,0h.3a22.2,22.2,0,0,1,2.9,10.9l4.8.6a22.9,22.9,0,0,1,5.7-9.8h.2a14.9,14.9,0,0,1,4.6,1.2h.1v.2a20.5,20.5,0,0,1,.8,5.6,35.6,35.6,0,0,1-.8,5.7l4.5,1.9a23.5,23.5,0,0,1,8-8h.3a17.7,17.7,0,0,1,4,2.4h.2v.5a22.8,22.8,0,0,1-2.9,10.6l3.8,3a22.2,22.2,0,0,1,9.8-5.7h.3a25,25,0,0,1,3.2,3.3l.2.2v.2a24.3,24.3,0,0,1-5.6,9.8l2.8,3.7a23.4,23.4,0,0,1,11-2.8h.3a23,23,0,0,1,2.3,4v.4a24.5,24.5,0,0,1-8,8l1.8,4.3a21.6,21.6,0,0,1,11.3,0h.2v.2a16.6,16.6,0,0,1,1.2,4.5v.2h-.2a21.4,21.4,0,0,1-9.8,5.7c.1.5.6,4.2.7,4.7a23.3,23.3,0,0,1,10.9,2.9l.2.2h0a17.7,17.7,0,0,1,.1,2.4M479.1,621.4,485,628c.8.9,1.7.8,2.9-.2a44.8,44.8,0,0,1,54.4,0c1.2.9,2.1,1.1,2.9.2l5.9-6.6c.7-.7.7-1.7-.6-2.8a57.8,57.8,0,0,0-35.4-12.4,56.9,56.9,0,0,0-35.4,12.5c-1.3,1-1.3,2-.6,2.7m.4,27.6c-.6-.4-1.3-.9-1.9-.6s-.8.6-1,1.4a43.8,43.8,0,0,0,0,26.8c.1.7.4,1.3.9,1.4s1.1,0,2-.6L497.7,665a2,2,0,0,0,0-3.6Zm4-10.8c.1.6.8,1,1.5,1.3l19.9,9.6a2.3,2.3,0,0,0,2.1.1,2.7,2.7,0,0,0,1-1.9l1.6-22c.1-1.1-.1-1.7-.5-2s-1-.3-1.6-.2a44.9,44.9,0,0,0-23.3,13.5,1.8,1.8,0,0,0-.7,1.6m.3,50.4a2.1,2.1,0,0,0,.7,1.3c6.9,7.2,13.8,11.2,23.3,13.4a1.8,1.8,0,0,0,1.6,0c.5-.3.6-1,.5-2l-1.6-22.1a2.1,2.1,0,0,0-1-1.8,2,2,0,0,0-2.1,0L485.4,687c-.7.4-1.5.7-1.6,1.4v.2m31.3-11.2a14.2,14.2,0,0,0,14.2-14.2,14.3,14.3,0,1,0-28.5,0,14.2,14.2,0,0,0,14.3,14.2m6,25.6a2.2,2.2,0,0,0,1.7.1,44.8,44.8,0,0,0,23.3-13.4c.4-.5.8-1,.7-1.5s-.6-1-1.5-1.4l-19.9-9.7a2.6,2.6,0,0,0-2.1,0,2.2,2.2,0,0,0-1,1.8L520.7,701c0,.7-.1,1.5.4,2m29.7-25.7a2.3,2.3,0,0,0,1.9.6c.4-.1.8-.6,1-1.4a43.8,43.8,0,0,0,0-26.8,2.4,2.4,0,0,0-.9-1.4q-.7-.3-2.1.6l-18.2,12.4a2.2,2.2,0,0,0-1.1,1.8,2.4,2.4,0,0,0,1.1,1.8Zm-4.1-39.5c.1-.4-.2-.8-.7-1.4A44.4,44.4,0,0,0,522.7,623a1.4,1.4,0,0,0-1.5.1c-.5.3-.6,1-.5,2l1.6,22.1a2.1,2.1,0,0,0,.9,1.8,2.2,2.2,0,0,0,2.2-.1l19.8-9.6c.7-.3,1.4-.6,1.5-1.3s.1-.1,0-.2m-84.9,39.4,8.5-2.4a2.2,2.2,0,0,0,1.4-2.1c-3.1-15.8.8-28.6,10-38.8a1.9,1.9,0,0,0,.2-3l-6.2-6.2c-.6-.7-1.7-.7-2.6.3-11.8,12.4-17.8,31.5-13.4,50.9a1.6,1.6,0,0,0,2.1,1.3m105.3,4.6-8.5-2.9c-.5-.2-1.6-.2-2.2,1.3a44.5,44.5,0,0,1-82.6-.3,1.7,1.7,0,0,0-2.2-1l-8.4,2.9a1.6,1.6,0,0,0-1,2.3,56.9,56.9,0,0,0,105.9-.1,1.6,1.6,0,0,0-1-2.2m-9.9-56.9a1.7,1.7,0,0,0-2.6-.2l-6.1,6.2a2,2,0,0,0,.1,3c9.3,10.2,13.2,23,10.1,38.8a2.2,2.2,0,0,0,1.4,2.1l8.5,2.4a1.6,1.6,0,0,0,2.1-1.3c4.3-19.4-1.6-38.6-13.5-51m-19.7-2.3,1.9-3.8,5.3-2.4-1.7-1.1-3.6,1.7-.7-3.9-2-.9,1.1,5.8-2,3.7Zm-9.9,85.3c-2.6.6-4.6,1-7.2,1.4l.2,1.6,2.9-.4,1.3,7.3,1.9-.4-1.6-7.3,2.9-.7Zm-25.8,1.3v.5a2.7,2.7,0,0,1-2.3,2.5l.3,4.2a7,7,0,0,1-1.9-.6v-3.9l-1.8-.8-1.4,3.5-1.8-.7,1.9-4.2.2-.5,1.5-3.5,4,1.5a2.2,2.2,0,0,1,1.4,2m-1.7,0c-.1-.3-.2-.5-.5-.6l-2.2-.9-.5,1.5-.2.5h0l2,.8a1.1,1.1,0,0,0,1.3-.8c.1-.2.2-.4.1-.5m27.5-90.8-2.1-.5,1.5-5,1-3.6,4.5,1.4a2.4,2.4,0,0,1,1.4,2.2,3,3,0,0,1-2,3.2l.5,4-1.8-.8-.5-3.5-1.7-.5Zm1.2-4.7,2,.7c.6.1,1.3-.7,1.3-1.5s-.1-.7-.6-.8a12.9,12.9,0,0,0-2.1-.6l-.4,1.4ZM519,713.5l1.9,4.7-1.8.2-.6-1.6h-3.9l-.4,1.6h-1.8l1.6-5,1.2-3.8v-.2h2v.3Zm-1.2,1.7-.7-1.7-.7-1.9-.6,1.9-.6,1.8Zm12-8.1,2.9,8.6a9.6,9.6,0,0,0,1.8-.7l-2.9-8.5-1.8.6m-43.4-90-.5-.9,4.1-2.3c1.6-.8,3.8,1.3,3.7,3.2a2.9,2.9,0,0,1-.3,1l3.2,2.4-1.8.8-2.9-2.1-1.6.9,1.7,2.8-1.8,1.1Zm2-.4.2.4.9,1.6,1.9-1a.6.6,0,0,0,.3-.6c.1-.8-.6-2-1.5-1.4l-1.8,1" transform="translate(-89.5 -64.2)"/><path class="e6bdf002-7971-4cad-a98e-706db0bd3c11" d="M316.5,674.1l.2,5.1a1.5,1.5,0,0,1-1.2,1.6,46.3,46.3,0,0,1-7,.9c-9.4,0-12.2-3.6-12.2-15.3v-18h-3.6a1.5,1.5,0,0,1-1.6-1.5v-5.3a1.5,1.5,0,0,1,1.6-1.5h3.6v-6.4a1.6,1.6,0,0,1,1.1-1.5l6.3-1.5a1.6,1.6,0,0,1,1.3.3,1.7,1.7,0,0,1,.6,1.2v7.9H315a1.5,1.5,0,0,1,1.6,1.5v5.3a1.5,1.5,0,0,1-1.6,1.5h-9.4v16.7c0,5.7.2,7.7,4.2,7.7h5.1a1.5,1.5,0,0,1,1.6,1.4m-29.4-13.9c0,14.8-5.6,21.4-18.2,21.4s-18.4-6.6-18.4-21.4,5.7-21.1,18.4-21.1,18.2,6.7,18.2,21.1m-9.4,0c0-9.1-2.5-12.6-8.8-12.6s-8.9,3.3-8.9,12.6,1.4,13,8.9,13,8.8-4.8,8.8-13m148.2-19.6a1.7,1.7,0,0,0-1.2-.5h-6a1.5,1.5,0,0,0-1.5,1.1l-8.1,30.5h-.6l-8.1-30.5a1.5,1.5,0,0,0-1.5-1.1h-6a1.9,1.9,0,0,0-1.3.5,1.4,1.4,0,0,0-.2,1.4l8.9,34.2c.4,1.7,2,4.5,5.1,4.5h1.7c-.2.6-.3,1.2-.5,1.7v.3c-.4,1.6-1.2,4-5.6,4l-7.7-.5a1.2,1.2,0,0,0-1.1.4,1.5,1.5,0,0,0-.5,1.2l.2,4a1.6,1.6,0,0,0,1.2,1.5,61,61,0,0,0,10.1,1.3h.5c5.8,0,9.8-3.7,11.8-11.1s5.1-19.9,7.3-28c.9-3.7,1.7-6.8,2.3-9.1l1.2-4.4a1.7,1.7,0,0,0-.3-1.4m-181,38a1.7,1.7,0,0,1-.1,1.4,1.5,1.5,0,0,1-1.3.7h-7.3a1.5,1.5,0,0,1-1.4-.9L225.6,659c-4.6,0-8.6-.2-10.7-.4v20.6a1.6,1.6,0,0,1-1.6,1.5h-6.4a1.6,1.6,0,0,1-1.6-1.5V627.1a1.6,1.6,0,0,1,1.4-1.6,167.8,167.8,0,0,1,17.4-1h1.3c15.8,0,19.2,9.4,19.2,17.2s-3.2,11.3-9.6,14.5Zm-19.6-45.2h-3.4a28.7,28.7,0,0,0-7,.6v16c1.8.1,5.3.3,10,.3s9.8-3.3,9.8-8.4-2.5-8.5-9.4-8.5m129.1,19.4v27a1.7,1.7,0,0,1-.5,1.2,2,2,0,0,1-1.3.4,12.4,12.4,0,0,1-6.1-2.6c-.1,0-7.1,2.8-13.3,2.8s-11.8-4.7-11.8-13,3.9-11.7,13.6-12.4l10.1-.8v-2.5c0-3.1-1.8-4.9-5.1-4.9s-10.7.6-14.1.9a1.5,1.5,0,0,1-1.1-.4,1.6,1.6,0,0,1-.5-1.1l-.3-5.2a1.7,1.7,0,0,1,1.3-1.6c3.1-.4,10.6-1.5,15.2-1.5,9.5,0,13.9,4.4,13.9,13.7m-18.3,10.3c-3.6.4-5.3,2-5.3,5.2s.5,5.3,4.1,5.3a49.8,49.8,0,0,0,10.2-1.6v-9.4Zm48.5-23.4c-4.1.3-8.2,2.6-10.7,4.4v-2.5a1.5,1.5,0,0,0-1.5-1.5h-6.3a1.5,1.5,0,0,0-1.5,1.5v37.6a1.5,1.5,0,0,0,1.5,1.5h6.3a1.5,1.5,0,0,0,1.5-1.5v-26a21.3,21.3,0,0,1,10.9-4.9,1.5,1.5,0,0,0,1.4-1.5v-5.5a1.4,1.4,0,0,0-.5-1.1,1.6,1.6,0,0,0-1.1-.5" transform="translate(-89.5 -64.2)"/><path class="e6bdf002-7971-4cad-a98e-706db0bd3c11" d="M249.7,216.7l4.8,8.8-1.4,1.2a18.5,18.5,0,0,1-3.9,1.8,17.6,17.6,0,0,1-6.4,1.1,18.3,18.3,0,0,1-12.5-4.5,14.7,14.7,0,0,1-5.2-11.8V190.4h-9.8v-9.6h4.9a5.3,5.3,0,0,0,4.1-1.6,5.8,5.8,0,0,0,1.5-4.2v-9.9h11.9v14.8h12.4v10.5H237.7v22.1a5.5,5.5,0,0,0,1.9,4.2,6.4,6.4,0,0,0,4.4,1.7,8.4,8.4,0,0,0,2.7-.4l2.3-.9Z" transform="translate(-89.5 -64.2)"/><path class="e6bdf002-7971-4cad-a98e-706db0bd3c11" d="M290.5,179.4h3.1V192a28.7,28.7,0,0,0-4.4-.4,16.1,16.1,0,0,0-9.9,3.2c-2.8,2.1-4.1,5.2-4.1,9.4v25H262.1V179.9h10l1.8,5.4h1.6A20.3,20.3,0,0,1,290.5,179.4Z" transform="translate(-89.5 -64.2)"/><path class="e6bdf002-7971-4cad-a98e-706db0bd3c11" d="M309.4,174.4a7.9,7.9,0,0,1-5.9-2.5,7.7,7.7,0,0,1-2.5-5.8,7.9,7.9,0,0,1,2.4-5.9,8.2,8.2,0,0,1,6-2.5,7.8,7.8,0,0,1,5.9,2.5,7.9,7.9,0,0,1,2.4,5.9,8.4,8.4,0,0,1-8.3,8.3Zm6.3,5.5v49.3H303.1V179.9Z" transform="translate(-89.5 -64.2)"/><path class="e6bdf002-7971-4cad-a98e-706db0bd3c11" d="M368.4,212.6c0,2.7.5,4.6,1.5,5.6a5.7,5.7,0,0,0,4.4,1.5v9.5h-3c-6,0-9.8-2.2-11.4-6.4-3.3,4.6-8.5,6.8-15.6,6.8s-10-1.3-13.3-3.9a12.8,12.8,0,0,1-4.9-10.6,14.3,14.3,0,0,1,1.5-6.6,12.4,12.4,0,0,1,4.4-4.7,51,51,0,0,1,5.7-2.9,26.7,26.7,0,0,1,6.8-1.8c2.7-.5,4.8-.7,6.4-.9l5.6-.4q-.3-7.8-8.4-7.8a11.6,11.6,0,0,0-3.4.5,6.5,6.5,0,0,0-2.2,1,4.9,4.9,0,0,0-1.2,1.3,2.1,2.1,0,0,0-.5,1.1v.4H328.4a14.8,14.8,0,0,1,5.9-10.8c3.5-2.7,8.2-4.1,14.1-4.1s11.1,1.7,14.7,4.9,5.3,8.4,5.3,15.2Zm-29.9,2.1c0,2.3,1.4,3.8,4.1,4.5a11.3,11.3,0,0,0,13.7-10.7v-1l-4.5.5-4,.7a20.5,20.5,0,0,0-3.8.8l-2.8,1.2a6,6,0,0,0-2.1,1.7A4.4,4.4,0,0,0,338.5,214.7Z" transform="translate(-89.5 -64.2)"/><path class="e6bdf002-7971-4cad-a98e-706db0bd3c11" d="M410.1,216.7l4.7,8.8-1.3,1.2a20.2,20.2,0,0,1-4,1.8,17.2,17.2,0,0,1-6.4,1.1,18.2,18.2,0,0,1-12.4-4.5,14.7,14.7,0,0,1-5.2-11.8V190.4h-9.9v-9.6h5a5.1,5.1,0,0,0,4-1.6,5.5,5.5,0,0,0,1.6-4.2v-9.9h11.9v14.8h12.4v10.5H398.1v22.1a5.8,5.8,0,0,0,1.8,4.2,6.4,6.4,0,0,0,4.5,1.7,9.3,9.3,0,0,0,2.7-.4,9.8,9.8,0,0,0,2.2-.9Z" transform="translate(-89.5 -64.2)"/><path class="e6bdf002-7971-4cad-a98e-706db0bd3c11" d="M422.6,159.2h12.8v70H422.6Z" transform="translate(-89.5 -64.2)"/><path class="e6bdf002-7971-4cad-a98e-706db0bd3c11" d="M487.9,222.7a25.4,25.4,0,0,1-17.9,6.9,24.6,24.6,0,0,1-17.7-6.9c-4.9-4.5-7.3-10.6-7.3-18.1s2.5-13.6,7.5-18.2a25.2,25.2,0,0,1,17.9-7,24.5,24.5,0,0,1,17.6,6.9c4.9,4.6,7.3,10.6,7.3,18.1S492.8,218.1,487.9,222.7Zm-26.5-8.4a11.4,11.4,0,0,0,9,3.9,10.9,10.9,0,0,0,8.8-3.9,15,15,0,0,0,3.2-9.8,15.2,15.2,0,0,0-3.2-9.8,10.9,10.9,0,0,0-8.8-3.9,11.2,11.2,0,0,0-9,4,15.3,15.3,0,0,0,0,19.5Zm8.2-53.1h14.2l-11.7,13.3h-8.7Z" transform="translate(-89.5 -64.2)"/><path class="e6bdf002-7971-4cad-a98e-706db0bd3c11" d="M533,179.4q9.3,0,14.1,6.3t4.8,16.8v26.7H538.8V202.9c0-.4-.1-1-.1-1.9a7.8,7.8,0,0,0-.3-2.2c-.2-.6-.4-1.4-.6-2.2a8.8,8.8,0,0,0-1-2.2,8,8,0,0,0-1.5-1.7,6.9,6.9,0,0,0-2.1-1.3,10.7,10.7,0,0,0-2.7-.6,13.7,13.7,0,0,0-4,.5,15,15,0,0,0-4.2,2.1,11.8,11.8,0,0,0-3.4,4.8,20.6,20.6,0,0,0-1.3,7.8v23.2h-13V179.9h10l1.7,6h1.7C521.7,181.6,526.7,179.4,533,179.4Z" transform="translate(-89.5 -64.2)"/><path class="e6bdf002-7971-4cad-a98e-706db0bd3c11" d="M272,259.8h3v8.5a17.5,17.5,0,0,0-4-.4,13.1,13.1,0,0,0-8.9,3.2c-2.4,2.1-3.6,5.2-3.6,9.4v29.1h-8.7V260.3h5.7l1.7,5.5h1.4A16.8,16.8,0,0,1,272,259.8Z" transform="translate(-89.5 -64.2)"/><path class="e6bdf002-7971-4cad-a98e-706db0bd3c11" d="M304.6,310.1a22.3,22.3,0,0,1-16.6-7.3,26,26,0,0,1,0-35.7,22.7,22.7,0,0,1,16.6-7.3c6.3,0,11.8,2.5,16.5,7.3a26.2,26.2,0,0,1,.1,35.8A22.6,22.6,0,0,1,304.6,310.1Zm-10.8-13a14.4,14.4,0,0,0,21.6,0,20.1,20.1,0,0,0,0-24.3,14.4,14.4,0,0,0-21.6,0,19.7,19.7,0,0,0,0,24.3Z" transform="translate(-89.5 -64.2)"/><path class="e6bdf002-7971-4cad-a98e-706db0bd3c11" d="M361.6,300.9l3.7,6a12.7,12.7,0,0,1-8.6,3.2,13,13,0,0,1-10.1-4.3c-2.5-2.9-3.7-6.6-3.7-11.1V267.6h-8.6v-6.4h3.1a6.3,6.3,0,0,0,4.7-1.9,6.6,6.6,0,0,0,1.9-4.9v-8.8h7.3v14.7h11.9v7.2H351.4v26.4q0,8.4,6.3,8.4A6.4,6.4,0,0,0,361.6,300.9Z" transform="translate(-89.5 -64.2)"/><path class="e6bdf002-7971-4cad-a98e-706db0bd3c11" d="M409.9,297q0,3.5,1.2,4.8a5.7,5.7,0,0,0,4.1,1.3v6.5h-3.5c-4.5,0-7.4-2-8.7-5.9-3.3,4.2-8,6.4-14.4,6.4a18.1,18.1,0,0,1-12-4,13.1,13.1,0,0,1-4.7-10.4c0-7.6,5.4-12.6,16.2-15.1,2.4-.5,7-1.2,14-2-.3-7.3-3.8-11-10.5-11a11.4,11.4,0,0,0-4.3.7,8.4,8.4,0,0,0-3,1.5,12.9,12.9,0,0,0-1.6,1.8,5.6,5.6,0,0,0-.8,1.5l-.2.6h-8.5a15,15,0,0,1,5.7-9.7c3.3-2.8,7.6-4.2,13-4.2s9.8,1.7,13.1,5,4.9,8.3,4.9,15.1Zm-29.8-1c0,3.3,1.8,5.4,5.3,6.3a13.6,13.6,0,0,0,11-1.8,10.8,10.8,0,0,0,5.6-9.3V286c-3.5.4-6.3.7-8.5,1.1a43.3,43.3,0,0,0-6.7,1.6,11.2,11.2,0,0,0-5.1,2.9A6.8,6.8,0,0,0,380.1,296Z" transform="translate(-89.5 -64.2)"/><path class="e6bdf002-7971-4cad-a98e-706db0bd3c11" d="M447.6,259.8h3v8.5a17.5,17.5,0,0,0-4-.4,13.3,13.3,0,0,0-8.9,3.2c-2.4,2.1-3.6,5.2-3.6,9.4v29.1h-8.7V260.3h5.7l1.7,5.5h1.4A16.9,16.9,0,0,1,447.6,259.8Z" transform="translate(-89.5 -64.2)"/><path class="e6bdf002-7971-4cad-a98e-706db0bd3c11" d="M497.3,260.3h8.9l-18.1,51.2c-1.9,5.7-3.6,9.6-5.2,11.8a14.3,14.3,0,0,1-12.4,6.5,20.6,20.6,0,0,1-6.2-1,8.7,8.7,0,0,1-3.9-2.4l3.8-6a9.9,9.9,0,0,0,5.9,1.9,7.3,7.3,0,0,0,3.2-.6,5.5,5.5,0,0,0,2.4-2.2l1.4-2.5,1.3-3.4,1.5-4h-4l-18-49.3h9l14.9,40.8h1Z" transform="translate(-89.5 -64.2)"/><path class="e6bdf002-7971-4cad-a98e-706db0bd3c11" d="M251.6,351.7h9L244.7,401h-13l-16-49.3h9.1l12.8,42.2h1.2Z" transform="translate(-89.5 -64.2)"/><path class="e6bdf002-7971-4cad-a98e-706db0bd3c11" d="M305.8,388.4c0,2.3.5,3.9,1.3,4.7a5.3,5.3,0,0,0,4.1,1.4V401h-3.5c-4.5,0-7.4-2-8.8-5.9-3.2,4.2-8,6.4-14.3,6.4s-9-1.4-12-4a13.1,13.1,0,0,1-4.7-10.4c0-7.6,5.4-12.6,16.2-15.1,2.3-.5,7-1.2,14-2.1-.4-7.2-3.8-10.9-10.5-10.9a12.3,12.3,0,0,0-4.4.7,8.7,8.7,0,0,0-2.9,1.5,12.9,12.9,0,0,0-1.6,1.8,4.4,4.4,0,0,0-.8,1.5l-.2.6h-8.5a14.6,14.6,0,0,1,5.7-9.7c3.3-2.8,7.6-4.2,13-4.2s9.8,1.7,13.1,5,4.8,8.3,4.8,15.1Zm-29.7-1c0,3.3,1.8,5.4,5.3,6.3a13.4,13.4,0,0,0,10.9-1.8,10.8,10.8,0,0,0,5.7-9.3v-5.2c-3.5.4-6.3.7-8.5,1.1a43.3,43.3,0,0,0-6.7,1.6,11.2,11.2,0,0,0-5.1,2.9A6.3,6.3,0,0,0,276.1,387.4Z" transform="translate(-89.5 -64.2)"/><path class="e6bdf002-7971-4cad-a98e-706db0bd3c11" d="M321.3,331h8.6v70h-8.6Z" transform="translate(-89.5 -64.2)"/><path class="e6bdf002-7971-4cad-a98e-706db0bd3c11" d="M379,331h8.4v70h-5.7l-1.9-6.3h-1.6a16.7,16.7,0,0,1-14,6.8,21.4,21.4,0,0,1-16.2-7.2c-4.4-4.7-6.6-10.7-6.6-17.9s2.2-13.3,6.6-18a21.4,21.4,0,0,1,16.2-7.2,17,17,0,0,1,14.8,7.9Zm-24.5,33c-3,3.2-4.4,7.3-4.4,12.4s1.4,9.1,4.4,12.3a14,14,0,0,0,10.3,4.7,13.6,13.6,0,0,0,9.9-4.3c2.9-2.9,4.3-7.2,4.3-12.7s-1.4-9.9-4.3-12.8a13.6,13.6,0,0,0-9.9-4.3A14,14,0,0,0,354.5,364Z" transform="translate(-89.5 -64.2)"/><path class="e6bdf002-7971-4cad-a98e-706db0bd3c11" d="M405.4,343.2a6.4,6.4,0,0,1-4.5-1.9,5.9,5.9,0,0,1-1.9-4.4,5.8,5.8,0,0,1,1.9-4.5,6.4,6.4,0,0,1,4.5-1.9,6.5,6.5,0,0,1,4.5,1.9,6.1,6.1,0,0,1,1.8,4.5,6.2,6.2,0,0,1-1.8,4.4A6.5,6.5,0,0,1,405.4,343.2Zm4.3,8.5V401H401V351.7Z" transform="translate(-89.5 -64.2)"/><path class="e6bdf002-7971-4cad-a98e-706db0bd3c11" d="M455.7,351.7h9L448.8,401h-13l-16-49.3h9.1l12.8,42.2h1.2Z" transform="translate(-89.5 -64.2)"/><path class="e6bdf002-7971-4cad-a98e-706db0bd3c11" d="M479.9,343.2a6.2,6.2,0,0,1-4.5-1.9,5.9,5.9,0,0,1-1.9-4.4,5.8,5.8,0,0,1,1.9-4.5,6.2,6.2,0,0,1,8.9,0,5.8,5.8,0,0,1,1.9,4.5,5.9,5.9,0,0,1-1.9,4.4A6.1,6.1,0,0,1,479.9,343.2Zm4.2,8.5V401h-8.6V351.7Z" transform="translate(-89.5 -64.2)"/><path class="e6bdf002-7971-4cad-a98e-706db0bd3c11" d="M540.7,391.3l5.1,2.7a3.4,3.4,0,0,0-.3.8l-.8,1.8a10.6,10.6,0,0,1-1.7,2.3,7.5,7.5,0,0,1-2.8,1.8,10.2,10.2,0,0,1-4,.8c-4.2,0-7.1-2.2-8.6-6.4-3.3,4.2-8,6.4-14.4,6.4a18.1,18.1,0,0,1-12-4,13.1,13.1,0,0,1-4.7-10.4c0-7.6,5.4-12.6,16.2-15.1,2.4-.5,7-1.2,14-2.1-.4-7.2-3.8-10.9-10.5-10.9a11.4,11.4,0,0,0-4.3.7,8.4,8.4,0,0,0-3,1.5l-1.6,1.8a4.4,4.4,0,0,0-.8,1.5l-.2.6h-8.5a15,15,0,0,1,5.7-9.7c3.3-2.8,7.6-4.2,13-4.2s9.8,1.7,13.1,5,4.9,8.3,4.9,15.1v17.1c0,4,1,6.1,3,6.1a2.8,2.8,0,0,0,2-.8,4.7,4.7,0,0,0,1-1.6Zm-36-3.9c0,3.3,1.8,5.4,5.3,6.3a13.6,13.6,0,0,0,11-1.8,10.9,10.9,0,0,0,5.6-9.3v-5.2c-3.5.4-6.3.7-8.5,1.1a43.3,43.3,0,0,0-6.7,1.6,11.2,11.2,0,0,0-5.1,2.9A6.8,6.8,0,0,0,504.7,387.4Z" transform="translate(-89.5 -64.2)"/><path class="e6bdf002-7971-4cad-a98e-706db0bd3c11" d="M645.6,201.9A64.5,64.5,0,1,0,710,266.4,64.5,64.5,0,0,0,645.6,201.9Zm0,99.7a35.2,35.2,0,1,1,35.2-35.2A35.3,35.3,0,0,1,645.6,301.6Z" transform="translate(-89.5 -64.2)"/><rect class="e6bdf002-7971-4cad-a98e-706db0bd3c11" x="281.6" y="464.8" width="181.3" height="35.17" transform="translate(-248.4 119.6) rotate(-23)"/><path class="e6bdf002-7971-4cad-a98e-706db0bd3c11" d="M215.5,64.2c-.4,2.2-.6,4-.9,5.9A74.7,74.7,0,0,1,206.7,94c-5.6,9.9-13.7,16-25.3,17.2-7.8.8-15.7,1.9-23.5,2.9a73.3,73.3,0,0,0-21.8,6.6,74.6,74.6,0,0,0-27.5,23,92.1,92.1,0,0,0-18.9,48.4c-.2,1.6-.1,3.2-.2,5l33.7-1c.2-.3.3-.4.3-.6s.1-.5.2-.8A58.4,58.4,0,0,1,136,164c6.6-8.5,14.8-14.3,25.6-15.8l8.8-1.2c7.9-1.2,15.9-2.1,23.7-3.6,16.6-3.3,29.3-12.6,38.3-26.8S246.7,84.8,249,67.3c0-.5.2-1,.3-1.8Z" transform="translate(-89.5 -64.2)"/><path class="e6bdf002-7971-4cad-a98e-706db0bd3c11" d="M215.5,64.2l33.8,1.3c-.1.8-.3,1.3-.3,1.8-2.3,17.5-7.2,34.2-16.6,49.3s-21.7,23.5-38.3,26.8c-7.8,1.5-15.8,2.4-23.7,3.6l-8.8,1.2c-10.8,1.5-19,7.3-25.6,15.8a58.4,58.4,0,0,0-12.3,30.7c-.1.3-.1.5-.2.8s-.1.3-.3.6l-33.7,1c.1-1.8,0-3.4.2-5a92.1,92.1,0,0,1,18.9-48.4,74.6,74.6,0,0,1,27.5-23,73.3,73.3,0,0,1,21.8-6.6c7.8-1,15.7-2.1,23.5-2.9,11.6-1.2,19.7-7.3,25.3-17.2a74.7,74.7,0,0,0,7.9-23.9C214.9,68.2,215.1,66.4,215.5,64.2Z" transform="translate(-89.5 -64.2)"/></svg>